<mxfile host="app.diagrams.net" modified="2024-03-27T17:14:57.418Z" agent="Mozilla/5.0 (Windows NT 10.0; Win64; x64) AppleWebKit/537.36 (KHTML, like Gecko) Chrome/123.0.0.0 Safari/537.36" version="24.2.0" etag="EVA92tlHugUdLe-Yf3hc" type="github">
  <diagram name="PÃ¡gina-1" id="dAGvHACqdjxYj1iJdW_O">
    <mxGraphModel>
      <root>
        <mxCell id="0" />
        <mxCell id="1" parent="0" />
      </root>
    </mxGraphModel>
  </diagram>
</mxfile>
